<?xml version="1.0" encoding="utf-8"?>
<!-- Generator: Adobe Illustrator 28.3.0, SVG Export Plug-In . SVG Version: 6.00 Build 0)  -->
<svg version="1.1" id="Layer_1" xmlns="http://www.w3.org/2000/svg" xmlns:xlink="http://www.w3.org/1999/xlink" x="0px" y="0px"
	 viewBox="0 0 323.2 78.2" style="enable-background:new 0 0 323.2 78.2;" xml:space="preserve">
<style type="text/css">
	.st0{fill:#FFFCE8;}
</style>
<g>
	<g>
		<g transform="translate(67.584859, 207.633327)">
			<g>
				<path class="st0" d="M-58.8-142c0.2,2.2,0.4,4.5,0.7,6.6c0.2,1.8,0.8,2.2,2.6,2.2c1.6-0.1,3.3-0.1,5-0.2
					c1.4-0.1,1.9-0.6,1.9-1.9c0.1-1.1,0-2,0-3c-0.6-9.1-1.1-18.2-1.1-27.2c0.1-2,0.1-2,2-2.1c3.7-0.2,7.5-0.5,11.1-1.4
					c1-0.2,1.9-0.6,2.8-1.1c0.4-0.2,0.7-0.6,0.6-1.1c-0.1-0.6-0.5-0.9-1.1-1c-0.8-0.2-1.5,0-2.3,0.2c-3.7,1.3-7.6,1.5-11.5,1.5
					c-1.6,0-1.7-0.1-1.6-1.8c0-5,0.4-10.1,1.1-15.1c0.2-1.5,0.6-3.2,1.3-4.5c0.6-1.3,1.6-2,3.1-1.9c1.8,0.2,3.5,0.5,5.3,0.7
					c2.8,0.3,5.8,0.9,8.7,0.7c0.8,0,1.5-0.2,1.5-1.2c0.1-0.9-0.2-1.5-1.1-1.7c-5.3-1.4-10.7-2.8-16.3-2.4c-6.2,0.4-9.7,3.3-11.3,9.5
					c-1.1,4.8-1.5,9.6-1.8,14.5c-0.2,2.3-0.2,2.3-2.3,2.7c-2,0.3-4,1.1-5.6,2.4c-0.5,0.3-1,0.7-0.8,1.3c0.2,0.6,0.8,0.6,1.3,0.7
					c1.7,0.2,3.2-0.3,4.7-0.9c2.2-0.9,2.3-0.7,2.3,1.5c0,4,0,7.9,0,12.2C-59.4-150.1-59-146-58.8-142z"/>
			</g>
		</g>
	</g>
	<g>
		<g transform="translate(99.126728, 207.633327)">
			<g>
				<path class="st0" d="M-14.2-159.1c-1.3-0.6-1.5-0.5-2.3,1.1c-1.8,3.5-3.4,7.1-5.2,10.5c-2.1,4.1-4.1,8.3-6.8,12
					c-0.4,0.7-0.7,1.5-1.6,1.7c-0.5-1-0.5-1.9-0.5-2.8c-0.1-3.2,0-6.4,0.2-9.6c0.5-8.7,1-17.3,1.1-25.9c0-1,0-1.9-0.2-2.9
					c-0.2-0.5-0.3-1-0.9-1c-2.3,0-4.5-0.2-6.7,0.5c-0.7,0.2-1.2,0.3-1.9,0.2c-1.8-0.4-3.6-0.7-5.4-0.3c-5.7,1.1-9.2,4.7-11.3,9.7
					c-1.9,4.2-2.4,8.7-2.1,13.2c0.1,2.2,0.5,4.4,1.4,6.5c0.8,2.1,2.4,3,4.6,3c1.8,0.1,3.3-0.6,4.5-1.9c1.1-1.3,2.2-2.8,3.1-4.3
					c0.9-1.5,1.8-3.1,2.8-4.7c0.6,0.5,0.3,1,0.4,1.4c0.2,3.2,0.2,6.4,0.8,9.6c0.5,3.5,1.1,7,2.8,10.1c2.3,4.2,8.2,4.9,11.4,1.4
					c1.2-1.3,2.2-2.8,3-4.4c3.5-6.7,6.8-13.6,9.9-20.6C-12.5-158.3-12.6-158.4-14.2-159.1z M-39.1-169.6c-0.1,0.9-0.2,1.9-0.7,2.7
					c-2.8,6.5-5.8,12.8-9.4,18.8c-0.6,0.9-1,2.3-2.3,1.9c-1.3-0.3-0.7-1.8-0.8-2.8c0-0.4,0-0.9,0-1.4c0.2-5.8,1.3-11.5,4.5-16.6
					c0.9-1.4,1.9-2.8,3.1-4c0.6-0.7,1.4-1.1,2.3-1.4C-40.3-172.8-38.9-171.8-39.1-169.6z"/>
			</g>
		</g>
	</g>
	<g>
		<g transform="translate(133.464171, 207.633327)">
			<g>
				<path class="st0" d="M17.8-160.5c-0.9-0.4-1.6-0.4-2.1,0.7c-0.3,0.8-0.7,1.7-1.1,2.5c-2.1,4.3-4.2,8.7-6.8,12.7
					c-0.6,0.8-1.1,1.6-1.9,2.2c-0.7,0.6-1.4,0.6-2-0.2c-0.8-1-1.2-2.1-1.5-3.3c-0.5-3.4-1-6.8-1.1-10.2c-0.1-2.5-0.4-5-1.1-7.5
					c-1.4-4.8-5.3-6.2-9.4-3.6c-0.7,0.5-1.4,1-1.9,1.5c-1.6,1.5-2.8,3.2-4,5c-0.4,0.6-0.6,1.3-1.4,1.6c-0.2-2.3-0.3-4.5-0.5-6.6
					c-0.2-2.9-0.7-5.8-1.9-8.5c-2.1-5.3-7.1-7-12-4.2c-2.3,1.3-4.1,3.2-5.6,5.3c-0.3,0.6-0.6,1.3-1.5,1.9c0-0.7,0-1.1,0-1.5
					c0.2-2.6,0-5.2-0.2-7.8c-0.2-1.9-0.2-2-2.2-1.9c-1.1,0.1-2.2,0.3-3.2,0.2c-1.2,0-1.8,0.6-1.9,1.7c-0.1,0.4-0.2,0.7-0.2,1.1
					c-1.7,10.6-2.3,21.2-1.7,32c0.1,2.8,0.3,5.6,0.9,8.4c0.2,1.5,0.5,1.7,2.1,1.8c1.1,0.1,2.3,0.1,3.4,0.1c1.6-0.1,1.7-0.2,1.9-1.7
					c0.1-1.5,0.3-3.1,0.4-4.5c0.3-8.5,2.8-16.5,5.6-24.5c0.7-2.1,1.7-4.1,3-5.9c0.5-0.7,1-1.4,1.7-1.9c1.1-0.8,2.1-0.7,2.8,0.6
					c0.7,1.3,1.1,2.8,1.5,4.3c1.1,5,1.4,10.1,1.4,15.3c0.1,4.7,0,9.4,0,14.2c0,1.9,0.1,2,2.1,2.2c3.9,0.2,3.2,0.5,4-3
					c1.1-5.3,2.5-10.5,4.7-15.5c0.9-2.2,2.1-4.1,3.8-5.7c0.8-0.8,1.3-0.6,1.6,0.4c0.4,1.1,0.7,2.2,0.7,3.3c0.4,3,0.7,5.9,1.5,8.8
					c0.6,2.6,1.4,5.2,2.7,7.5c2.2,4,7.7,4.5,10.3,1.4c0.6-0.8,1.5-1.6,2-2.5c3.3-4.5,5.3-9.7,7.5-14.9
					C18.4-159.5,18.7-160.2,17.8-160.5z"/>
			</g>
		</g>
	</g>
	<g>
		<g transform="translate(181.961843, 207.633327)">
			<g>
				<path class="st0" d="M-20.7-142c0.2,2.2,0.4,4.5,0.7,6.6c0.2,1.8,0.8,2.2,2.6,2.2c1.6-0.1,3.3-0.1,5-0.2
					c1.4-0.1,1.9-0.6,1.9-1.9c0.1-1.1,0-2,0-3c-0.6-9.1-1.1-18.2-1.1-27.2c0.1-2,0.1-2,2-2.1c3.7-0.2,7.5-0.5,11.1-1.4
					c1-0.2,1.9-0.6,2.8-1.1c0.4-0.2,0.7-0.6,0.6-1.1c-0.1-0.6-0.5-0.9-1.1-1c-0.8-0.2-1.5,0-2.3,0.2c-3.7,1.3-7.6,1.5-11.5,1.5
					c-1.6,0-1.7-0.1-1.6-1.8c0-5,0.4-10.1,1.1-15.1c0.2-1.5,0.6-3.2,1.3-4.5c0.6-1.3,1.6-2,3.1-1.9c1.8,0.2,3.5,0.5,5.3,0.7
					c2.8,0.3,5.8,0.9,8.7,0.7c0.8,0,1.5-0.2,1.5-1.2c0.1-0.9-0.2-1.5-1.1-1.7c-5.3-1.4-10.7-2.8-16.3-2.4c-6.2,0.4-9.7,3.3-11.3,9.5
					c-1.1,4.8-1.5,9.6-1.8,14.5c-0.2,2.3-0.2,2.3-2.3,2.7c-2,0.3-4,1.1-5.6,2.4c-0.5,0.3-1,0.7-0.8,1.3c0.2,0.6,0.8,0.6,1.3,0.7
					c1.7,0.2,3.2-0.3,4.7-0.9c2.2-0.9,2.3-0.7,2.3,1.5c0,4,0,7.9,0,12.2C-21.2-150.1-20.9-146-20.7-142z"/>
			</g>
		</g>
	</g>
	<g>
		<g transform="translate(213.503715, 207.633327)">
			<g>
				<path class="st0" d="M0.4-159.5c0.6,0.1,1.1,0.2,1.5,0.3c4.7,1.1,9.3,0.2,13.9-0.9c1-0.2,1.2-0.7,1-1.7c-0.2-0.9-0.8-1-1.5-0.8
					c-0.9,0.2-1.8,0.3-2.7,0.6c-5.7,1.5-10.2-0.4-14.2-4.4c-0.6-0.7-1.3-1.3-1.9-1.9c-0.8-0.9-1.7-1.7-2.7-2.4
					c-2.4-1.8-4.3-1.8-6.6,0.1c-1.5,1.1-2.5,2.4-3.5,3.9c-3.2,4.9-4.8,10.2-5.3,16c-0.3,3.2,0.2,6.2,1.6,9.1
					c1.4,2.7,3.4,4.5,6.3,5.2c5.8,1.4,10.1-0.9,12.4-6.3c2-5,2.8-10.1,1.4-15.5c-0.1-0.2,0-0.6-0.1-1C0.3-159.4,0.3-159.5,0.4-159.5
					z M-7.9-164.7c4.3,7.1,5.2,14.6,1.5,22.2c-0.6,1.1-1.1,2-2,2.8c-1.1,1-2,0.9-2.9-0.3c-0.6-0.7-0.8-1.5-1.1-2.4
					c-1-3.5-1-7-0.5-10.5c0.5-3.2,1.1-6.5,2.1-9.6c0.4-1.2,0.9-2.4,1.7-3.4C-8.5-165.6-8.1-165.2-7.9-164.7z"/>
			</g>
		</g>
	</g>
	<g>
		<g transform="translate(240.79144, 207.633327)">
			<g>
				<path class="st0" d="M-13.2-163.3c0.5,6,1.5,11.9,3.7,17.7c1.1,3.1,2.5,6,4.6,8.6c1.5,1.9,3.6,3.1,6.1,3.3
					c3.9,0.4,7.1-0.7,9.5-3.8c0.7-0.9,1.4-1.9,2-2.8c3.5-5.4,5.3-11.5,7.6-17.4c0.1-0.2,0.1-0.5,0.1-0.7c0.1-0.3-0.1-0.6-0.3-0.8
					c-1.3-0.9-2.8-0.5-3.4,0.9c-0.2,0.5-0.3,0.9-0.5,1.3c-2.3,4.9-4.2,10-6.9,14.8c-0.8,1.5-1.7,2.9-3,4.1c-2.4,2.3-4.2,1.9-5.7-1
					c-0.1-0.2-0.2-0.4-0.3-0.7c-1.9-4.9-3-10-3.2-15.3c-0.1-0.9,0.2-1.6,0.7-2.4c5.5-7.5,9.4-15.9,12.8-24.5
					c1.5-3.9,2.5-7.9,2.8-12.1c0.2-2.9,0-5.8-1.1-8.5c-1.6-3.8-5.3-5.8-9.3-4.9c-3.2,0.7-5.7,2.5-7.7,5c-2.3,3-3.9,6.4-5.1,9.9
					c-2.6,7.4-3.4,14.9-3.6,23.3C-13.5-167.7-13.5-165.6-13.2-163.3z M-3.8-163.9c-0.6-11.7,0.4-23.2,4.5-34.2
					c0.6-1.5,1.1-2.8,2-4.1c1.3-1.9,2.3-1.8,3.4,0.3c1.3,2.5,1.7,5.2,1.5,8c-0.2,5.8-1.6,11.4-3.9,16.8c-1.7,4.1-3.5,8.2-5.6,12.1
					c-0.5,0.7-0.9,1.5-1.5,2.4C-3.9-163-3.8-163.4-3.8-163.9z"/>
			</g>
		</g>
	</g>
	<g>
		<g transform="translate(263.885787, 207.633327)">
			<g>
				<path class="st0" d="M21.1-160c-1.4-0.5-1.5-0.5-2.4,1c-0.1,0.2-0.2,0.6-0.4,0.8c-2.7,5.3-5.3,10.5-8,15.7c-0.5,1-1,1.9-1.5,2.8
					c-0.8,1.2-1.5,1.1-2.3-0.1c-0.7-1.2-1.1-2.6-1.3-3.9c-0.6-3.5-0.6-7.1-0.7-10.5c-0.2-6.4,0.4-12.8,0.9-19.2
					c0.2-3.2,0.2-3.2-3.2-3.3c-0.2,0-0.4,0-0.6,0c-0.8-0.1-1.3,0.2-1.5,1.1c-0.2,0.6-0.6,1.2-0.7,1.9c-1.5,6-2.5,12.1-2.5,18.7
					c-0.1,3.1,0.2,6.6,1,10c0.6,2.2,1.3,4.2,2.7,6c3.4,4.4,10.5,4,13.2-0.8c0.7-1.3,1.4-2.8,1.9-4.1c2-4.6,4.1-9.2,6.1-13.9
					C22-158.7,22.4-159.6,21.1-160z M4-181.1c2.2-0.1,3.5-1.3,3.5-3.3c0-1.9-1.4-3.2-3.7-3.1c-1.8,0-3.2,1.7-3.2,3.6
					C0.6-182,1.8-181.1,4-181.1z"/>
			</g>
		</g>
	</g>
	<g>
		<g transform="translate(283.151411, 207.633327)">
			<g>
				<path class="st0" d="M23.6-159.5c0.6,0.1,1.1,0.2,1.5,0.3c4.7,1.1,9.3,0.2,13.9-0.9c1-0.2,1.2-0.7,1-1.7c-0.2-0.9-0.8-1-1.5-0.8
					c-0.9,0.2-1.8,0.3-2.7,0.6c-5.7,1.5-10.2-0.4-14.2-4.4c-0.6-0.7-1.3-1.3-1.9-1.9c-0.8-0.9-1.7-1.7-2.7-2.4
					c-2.4-1.8-4.3-1.8-6.6,0.1c-1.5,1.1-2.5,2.4-3.5,3.9c-3.2,4.9-4.8,10.2-5.3,16c-0.3,3.2,0.2,6.2,1.6,9.1
					c1.4,2.7,3.4,4.5,6.3,5.2c5.8,1.4,10.1-0.9,12.4-6.3c2-5,2.8-10.1,1.4-15.5c-0.1-0.2,0-0.6-0.1-1
					C23.5-159.4,23.5-159.5,23.6-159.5z M15.3-164.7c4.3,7.1,5.2,14.6,1.5,22.2c-0.6,1.1-1.1,2-2,2.8c-1.1,1-2,0.9-2.9-0.3
					c-0.6-0.7-0.8-1.5-1.1-2.4c-1-3.5-1-7-0.5-10.5c0.5-3.2,1.1-6.5,2.1-9.6c0.4-1.2,0.9-2.4,1.7-3.4
					C14.8-165.6,15.1-165.2,15.3-164.7z"/>
			</g>
		</g>
	</g>
	<g>
		<g transform="translate(182.415867, 244.637784)">
		</g>
	</g>
</g>
</svg>
