<svg xmlns="http://www.w3.org/2000/svg" xmlns:xlink="http://www.w3.org/1999/xlink" width="500" zoomAndPan="magnify" viewBox="0 0 375 374.999991" height="500" preserveAspectRatio="xMidYMid meet" version="1.0"><defs><g/><clipPath id="605907e009"><path d="M 29.894531 29.917969 L 344.894531 29.917969 L 344.894531 344.917969 L 29.894531 344.917969 Z M 29.894531 29.917969 " clip-rule="nonzero"/></clipPath><clipPath id="f8534a569f"><path d="M 187.472656 29.917969 C 100.445312 29.917969 29.894531 100.46875 29.894531 187.496094 C 29.894531 274.523438 100.445312 345.070312 187.472656 345.070312 C 274.496094 345.070312 345.046875 274.523438 345.046875 187.496094 C 345.046875 100.46875 274.496094 29.917969 187.472656 29.917969 Z M 187.472656 29.917969 " clip-rule="nonzero"/></clipPath><clipPath id="e2c936863c"><path d="M 62.398438 62.421875 L 312.546875 62.421875 L 312.546875 312.570312 L 62.398438 312.570312 Z M 62.398438 62.421875 " clip-rule="nonzero"/></clipPath><clipPath id="e680234674"><path d="M 187.472656 62.421875 C 118.394531 62.421875 62.398438 118.417969 62.398438 187.496094 C 62.398438 256.574219 118.394531 312.570312 187.472656 312.570312 C 256.550781 312.570312 312.546875 256.574219 312.546875 187.496094 C 312.546875 118.417969 256.550781 62.421875 187.472656 62.421875 Z M 187.472656 62.421875 " clip-rule="nonzero"/></clipPath></defs><g clip-path="url(#605907e009)"><g clip-path="url(#f8534a569f)"><path stroke-linecap="butt" transform="matrix(0.75, 0, 0, 0.75, 29.894808, 29.918785)" fill="none" stroke-linejoin="miter" d="M 210.103811 -0.00108854 C 94.067345 -0.00108854 -0.000369503 94.066626 -0.000369503 210.103092 C -0.000369503 326.139558 94.067345 420.202064 210.103811 420.202064 C 326.135069 420.202064 420.202783 326.139558 420.202783 210.103092 C 420.202783 94.066626 326.135069 -0.00108854 210.103811 -0.00108854 Z M 210.103811 -0.00108854 " stroke="#000000" stroke-width="2" stroke-opacity="1" stroke-miterlimit="4"/></g></g><g clip-path="url(#e2c936863c)"><g clip-path="url(#e680234674)"><path stroke-linecap="butt" transform="matrix(0.75, 0, 0, 0.75, 62.398272, 62.422246)" fill="none" stroke-linejoin="miter" d="M 166.765856 -0.000495068 C 74.661683 -0.000495068 0.00022013 74.660968 0.00022013 166.765141 C 0.00022013 258.869314 74.661683 333.530777 166.765856 333.530777 C 258.870029 333.530777 333.531492 258.869314 333.531492 166.765141 C 333.531492 74.660968 258.870029 -0.000495068 166.765856 -0.000495068 Z M 166.765856 -0.000495068 " stroke="#000000" stroke-width="2" stroke-opacity="1" stroke-miterlimit="4"/></g></g><g fill="#191919" fill-opacity="1"><g transform="translate(67.574089, 207.098002)"><g><path d="M 6.988281 -4.195312 C 7.113281 -2.554688 7.292969 -0.851562 7.535156 0.789062 C 7.71875 2.128906 8.144531 2.429688 9.480469 2.429688 C 10.699219 2.371094 11.972656 2.371094 13.25 2.25 C 14.285156 2.1875 14.648438 1.824219 14.707031 0.789062 C 14.769531 0 14.707031 -0.730469 14.707031 -1.457031 C 14.222656 -8.265625 13.917969 -15.074219 13.917969 -21.882812 C 13.980469 -23.402344 13.980469 -23.402344 15.4375 -23.460938 C 18.234375 -23.582031 21.03125 -23.824219 23.765625 -24.496094 C 24.496094 -24.675781 25.222656 -24.921875 25.832031 -25.34375 C 26.136719 -25.527344 26.378906 -25.769531 26.316406 -26.195312 C 26.257812 -26.621094 25.953125 -26.863281 25.527344 -26.925781 C 24.921875 -27.109375 24.375 -26.925781 23.824219 -26.742188 C 21.03125 -25.769531 18.113281 -25.648438 15.195312 -25.648438 C 13.980469 -25.648438 13.917969 -25.710938 13.980469 -26.988281 C 13.980469 -30.753906 14.285156 -34.523438 14.832031 -38.292969 C 14.953125 -39.445312 15.257812 -40.664062 15.804688 -41.695312 C 16.289062 -42.667969 17.019531 -43.214844 18.113281 -43.09375 C 19.449219 -42.910156 20.726562 -42.730469 22.0625 -42.546875 C 24.191406 -42.304688 26.378906 -41.878906 28.566406 -42 C 29.175781 -42 29.660156 -42.121094 29.722656 -42.910156 C 29.78125 -43.578125 29.601562 -44.003906 28.933594 -44.1875 C 24.921875 -45.222656 20.910156 -46.253906 16.714844 -46.011719 C 12.035156 -45.707031 9.421875 -43.519531 8.265625 -38.898438 C 7.414062 -35.3125 7.171875 -31.667969 6.929688 -28.019531 C 6.808594 -26.316406 6.808594 -26.316406 5.226562 -26.015625 C 3.707031 -25.769531 2.25 -25.222656 1.035156 -24.25 C 0.667969 -24.007812 0.304688 -23.703125 0.425781 -23.277344 C 0.546875 -22.792969 1.035156 -22.792969 1.398438 -22.730469 C 2.675781 -22.550781 3.769531 -22.976562 4.921875 -23.402344 C 6.5625 -24.070312 6.625 -23.949219 6.625 -22.246094 C 6.625 -19.265625 6.625 -16.289062 6.625 -13.128906 C 6.5625 -10.273438 6.808594 -7.234375 6.988281 -4.195312 Z M 6.988281 -4.195312 "/></g></g></g><g fill="#191919" fill-opacity="1"><g transform="translate(99.118619, 207.098002)"><g><path d="M 32.578125 -17.019531 C 31.605469 -17.445312 31.421875 -17.382812 30.816406 -16.167969 C 29.480469 -13.554688 28.261719 -10.878906 26.925781 -8.328125 C 25.34375 -5.226562 23.824219 -2.128906 21.820312 0.667969 C 21.515625 1.15625 21.273438 1.761719 20.605469 1.945312 C 20.238281 1.214844 20.238281 0.546875 20.238281 -0.183594 C 20.179688 -2.554688 20.238281 -4.984375 20.421875 -7.355469 C 20.785156 -13.859375 21.152344 -20.300781 21.210938 -26.804688 C 21.210938 -27.535156 21.210938 -28.261719 21.03125 -28.992188 C 20.910156 -29.355469 20.785156 -29.722656 20.363281 -29.722656 C 18.660156 -29.722656 16.957031 -29.902344 15.316406 -29.355469 C 14.769531 -29.175781 14.40625 -29.113281 13.859375 -29.234375 C 12.519531 -29.539062 11.183594 -29.78125 9.785156 -29.480469 C 5.53125 -28.6875 2.917969 -25.953125 1.277344 -22.183594 C -0.121094 -19.023438 -0.546875 -15.679688 -0.304688 -12.277344 C -0.242188 -10.636719 0.0625 -8.996094 0.730469 -7.414062 C 1.335938 -5.835938 2.554688 -5.167969 4.195312 -5.167969 C 5.53125 -5.105469 6.6875 -5.59375 7.597656 -6.5625 C 8.449219 -7.535156 9.238281 -8.632812 9.90625 -9.785156 C 10.574219 -10.941406 11.246094 -12.09375 11.972656 -13.3125 C 12.398438 -12.945312 12.21875 -12.582031 12.277344 -12.277344 C 12.398438 -9.90625 12.460938 -7.476562 12.886719 -5.105469 C 13.25 -2.492188 13.738281 0.121094 15.011719 2.492188 C 16.714844 5.652344 21.152344 6.199219 23.582031 3.523438 C 24.496094 2.554688 25.222656 1.457031 25.832031 0.242188 C 28.445312 -4.800781 30.9375 -9.96875 33.246094 -15.195312 C 33.792969 -16.410156 33.734375 -16.53125 32.578125 -17.019531 Z M 13.859375 -24.921875 C 13.796875 -24.25 13.675781 -23.523438 13.371094 -22.914062 C 11.304688 -18.050781 9.054688 -13.3125 6.320312 -8.8125 C 5.894531 -8.144531 5.59375 -7.113281 4.621094 -7.355469 C 3.648438 -7.597656 4.132812 -8.691406 4.011719 -9.421875 C 4.011719 -9.726562 4.011719 -10.089844 4.011719 -10.453125 C 4.132812 -14.832031 4.984375 -19.085938 7.355469 -22.914062 C 8.023438 -23.949219 8.753906 -24.980469 9.664062 -25.894531 C 10.152344 -26.378906 10.699219 -26.742188 11.425781 -26.925781 C 13.007812 -27.351562 14.039062 -26.5625 13.859375 -24.921875 Z M 13.859375 -24.921875 "/></g></g></g><g fill="#191919" fill-opacity="1"><g transform="translate(133.458985, 207.098002)"><g><path d="M 47.957031 -18.113281 C 47.289062 -18.417969 46.742188 -18.417969 46.375 -17.625 C 46.132812 -17.019531 45.828125 -16.351562 45.523438 -15.742188 C 43.945312 -12.519531 42.363281 -9.238281 40.417969 -6.199219 C 39.992188 -5.59375 39.570312 -4.984375 38.960938 -4.558594 C 38.414062 -4.132812 37.925781 -4.132812 37.441406 -4.679688 C 36.832031 -5.410156 36.53125 -6.261719 36.347656 -7.171875 C 35.980469 -9.726562 35.617188 -12.277344 35.558594 -14.832031 C 35.496094 -16.714844 35.253906 -18.597656 34.765625 -20.421875 C 33.734375 -24.007812 30.816406 -25.101562 27.714844 -23.097656 C 27.167969 -22.730469 26.683594 -22.367188 26.257812 -21.941406 C 25.042969 -20.785156 24.128906 -19.511719 23.277344 -18.171875 C 22.976562 -17.746094 22.855469 -17.199219 22.246094 -16.957031 C 22.125 -18.660156 22.003906 -20.300781 21.882812 -21.882812 C 21.699219 -24.070312 21.335938 -26.257812 20.484375 -28.261719 C 18.902344 -32.214844 15.195312 -33.492188 11.488281 -31.421875 C 9.726562 -30.453125 8.449219 -28.992188 7.292969 -27.414062 C 7.050781 -26.988281 6.867188 -26.441406 6.199219 -26.015625 C 6.199219 -26.5625 6.199219 -26.804688 6.199219 -27.109375 C 6.320312 -29.054688 6.199219 -31 6.078125 -32.941406 C 5.957031 -34.402344 5.957031 -34.460938 4.4375 -34.402344 C 3.585938 -34.339844 2.796875 -34.160156 2.003906 -34.21875 C 1.09375 -34.21875 0.667969 -33.792969 0.546875 -32.941406 C 0.484375 -32.640625 0.425781 -32.394531 0.425781 -32.09375 C -0.851562 -24.128906 -1.335938 -16.167969 -0.851562 -8.082031 C -0.789062 -6.015625 -0.609375 -3.890625 -0.183594 -1.761719 C 0 -0.609375 0.183594 -0.484375 1.398438 -0.425781 C 2.25 -0.363281 3.101562 -0.363281 3.949219 -0.363281 C 5.167969 -0.425781 5.226562 -0.484375 5.347656 -1.640625 C 5.410156 -2.796875 5.59375 -3.949219 5.652344 -5.042969 C 5.894531 -11.425781 7.78125 -17.445312 9.847656 -23.402344 C 10.394531 -24.980469 11.121094 -26.5 12.09375 -27.835938 C 12.460938 -28.382812 12.824219 -28.871094 13.371094 -29.234375 C 14.222656 -29.84375 14.953125 -29.722656 15.5 -28.75 C 16.046875 -27.777344 16.351562 -26.621094 16.59375 -25.527344 C 17.445312 -21.757812 17.625 -17.929688 17.625 -14.039062 C 17.6875 -10.515625 17.625 -6.988281 17.625 -3.402344 C 17.625 -1.945312 17.6875 -1.882812 19.207031 -1.761719 C 22.125 -1.582031 21.636719 -1.398438 22.183594 -4.011719 C 22.976562 -7.960938 24.070312 -11.851562 25.710938 -15.621094 C 26.378906 -17.261719 27.289062 -18.660156 28.566406 -19.875 C 29.175781 -20.484375 29.539062 -20.363281 29.78125 -19.570312 C 30.085938 -18.78125 30.269531 -17.929688 30.328125 -17.078125 C 30.632812 -14.832031 30.875 -12.640625 31.421875 -10.453125 C 31.847656 -8.507812 32.457031 -6.5625 33.429688 -4.800781 C 35.070312 -1.824219 39.203125 -1.398438 41.148438 -3.769531 C 41.636719 -4.375 42.242188 -4.984375 42.667969 -5.652344 C 45.160156 -9.054688 46.679688 -12.945312 48.261719 -16.835938 C 48.441406 -17.324219 48.625 -17.871094 47.957031 -18.113281 Z M 47.957031 -18.113281 "/></g></g></g><g fill="#191919" fill-opacity="1"><g transform="translate(181.960898, 207.098002)"><g><path d="M 6.988281 -4.195312 C 7.113281 -2.554688 7.292969 -0.851562 7.535156 0.789062 C 7.71875 2.128906 8.144531 2.429688 9.480469 2.429688 C 10.699219 2.371094 11.972656 2.371094 13.25 2.25 C 14.285156 2.1875 14.648438 1.824219 14.707031 0.789062 C 14.769531 0 14.707031 -0.730469 14.707031 -1.457031 C 14.222656 -8.265625 13.917969 -15.074219 13.917969 -21.882812 C 13.980469 -23.402344 13.980469 -23.402344 15.4375 -23.460938 C 18.234375 -23.582031 21.03125 -23.824219 23.765625 -24.496094 C 24.496094 -24.675781 25.222656 -24.921875 25.832031 -25.34375 C 26.136719 -25.527344 26.378906 -25.769531 26.316406 -26.195312 C 26.257812 -26.621094 25.953125 -26.863281 25.527344 -26.925781 C 24.921875 -27.109375 24.375 -26.925781 23.824219 -26.742188 C 21.03125 -25.769531 18.113281 -25.648438 15.195312 -25.648438 C 13.980469 -25.648438 13.917969 -25.710938 13.980469 -26.988281 C 13.980469 -30.753906 14.285156 -34.523438 14.832031 -38.292969 C 14.953125 -39.445312 15.257812 -40.664062 15.804688 -41.695312 C 16.289062 -42.667969 17.019531 -43.214844 18.113281 -43.09375 C 19.449219 -42.910156 20.726562 -42.730469 22.0625 -42.546875 C 24.191406 -42.304688 26.378906 -41.878906 28.566406 -42 C 29.175781 -42 29.660156 -42.121094 29.722656 -42.910156 C 29.78125 -43.578125 29.601562 -44.003906 28.933594 -44.1875 C 24.921875 -45.222656 20.910156 -46.253906 16.714844 -46.011719 C 12.035156 -45.707031 9.421875 -43.519531 8.265625 -38.898438 C 7.414062 -35.3125 7.171875 -31.667969 6.929688 -28.019531 C 6.808594 -26.316406 6.808594 -26.316406 5.226562 -26.015625 C 3.707031 -25.769531 2.25 -25.222656 1.035156 -24.25 C 0.667969 -24.007812 0.304688 -23.703125 0.425781 -23.277344 C 0.546875 -22.792969 1.035156 -22.792969 1.398438 -22.730469 C 2.675781 -22.550781 3.769531 -22.976562 4.921875 -23.402344 C 6.5625 -24.070312 6.625 -23.949219 6.625 -22.246094 C 6.625 -19.265625 6.625 -16.289062 6.625 -13.128906 C 6.5625 -10.273438 6.808594 -7.234375 6.988281 -4.195312 Z M 6.988281 -4.195312 "/></g></g></g><g fill="#191919" fill-opacity="1"><g transform="translate(213.505428, 207.098002)"><g><path d="M 14.890625 -17.324219 C 15.316406 -17.261719 15.679688 -17.140625 16.046875 -17.078125 C 19.570312 -16.226562 23.035156 -16.898438 26.441406 -17.746094 C 27.167969 -17.929688 27.351562 -18.296875 27.167969 -19.023438 C 27.046875 -19.691406 26.5625 -19.753906 26.015625 -19.632812 C 25.34375 -19.449219 24.675781 -19.390625 24.007812 -19.207031 C 19.753906 -18.113281 16.351562 -19.511719 13.371094 -22.488281 C 12.886719 -22.976562 12.398438 -23.460938 11.914062 -23.949219 C 11.304688 -24.617188 10.636719 -25.222656 9.90625 -25.769531 C 8.082031 -27.109375 6.6875 -27.109375 4.921875 -25.710938 C 3.828125 -24.921875 3.039062 -23.886719 2.308594 -22.792969 C -0.0625 -19.144531 -1.277344 -15.132812 -1.640625 -10.820312 C -1.882812 -8.449219 -1.519531 -6.140625 -0.425781 -4.011719 C 0.609375 -2.003906 2.128906 -0.609375 4.316406 -0.121094 C 8.632812 0.910156 11.914062 -0.789062 13.613281 -4.863281 C 15.132812 -8.632812 15.679688 -12.460938 14.648438 -16.472656 C 14.585938 -16.652344 14.648438 -16.898438 14.585938 -17.199219 C 14.832031 -17.261719 14.832031 -17.324219 14.890625 -17.324219 Z M 8.691406 -21.273438 C 11.914062 -15.925781 12.582031 -10.332031 9.847656 -4.621094 C 9.421875 -3.828125 8.996094 -3.101562 8.328125 -2.492188 C 7.535156 -1.761719 6.808594 -1.824219 6.140625 -2.734375 C 5.714844 -3.28125 5.53125 -3.890625 5.289062 -4.558594 C 4.558594 -7.171875 4.558594 -9.785156 4.921875 -12.398438 C 5.289062 -14.832031 5.714844 -17.261719 6.503906 -19.570312 C 6.808594 -20.484375 7.171875 -21.394531 7.78125 -22.125 C 8.265625 -21.941406 8.507812 -21.578125 8.691406 -21.273438 Z M 8.691406 -21.273438 "/></g></g></g><g fill="#191919" fill-opacity="1"><g transform="translate(240.795415, 207.098002)"><g><path d="M -2.128906 -20.179688 C -1.761719 -15.679688 -0.972656 -11.246094 0.609375 -6.929688 C 1.398438 -4.621094 2.492188 -2.429688 4.074219 -0.484375 C 5.226562 0.972656 6.746094 1.824219 8.632812 2.003906 C 11.546875 2.308594 13.917969 1.457031 15.742188 -0.851562 C 16.289062 -1.519531 16.777344 -2.25 17.261719 -2.917969 C 19.875 -6.988281 21.210938 -11.546875 22.976562 -15.984375 C 23.035156 -16.167969 23.035156 -16.351562 23.035156 -16.472656 C 23.097656 -16.714844 22.976562 -16.957031 22.792969 -17.078125 C 21.820312 -17.746094 20.726562 -17.445312 20.238281 -16.410156 C 20.117188 -16.046875 19.996094 -15.742188 19.875 -15.4375 C 18.171875 -11.730469 16.714844 -7.902344 14.707031 -4.375 C 14.101562 -3.28125 13.433594 -2.1875 12.460938 -1.335938 C 10.636719 0.363281 9.300781 0.121094 8.207031 -2.066406 C 8.144531 -2.1875 8.023438 -2.371094 7.960938 -2.554688 C 6.5625 -6.261719 5.714844 -10.089844 5.53125 -14.039062 C 5.46875 -14.707031 5.652344 -15.257812 6.078125 -15.804688 C 10.210938 -21.457031 13.128906 -27.714844 15.679688 -34.160156 C 16.835938 -37.078125 17.566406 -40.117188 17.746094 -43.214844 C 17.929688 -45.402344 17.746094 -47.53125 16.898438 -49.597656 C 15.679688 -52.453125 12.945312 -53.914062 9.90625 -53.304688 C 7.476562 -52.820312 5.652344 -51.421875 4.132812 -49.535156 C 2.371094 -47.289062 1.214844 -44.734375 0.304688 -42.121094 C -1.640625 -36.589844 -2.25 -30.9375 -2.371094 -24.675781 C -2.308594 -23.523438 -2.308594 -21.882812 -2.128906 -20.179688 Z M 4.921875 -20.605469 C 4.4375 -29.355469 5.226562 -37.988281 8.328125 -46.253906 C 8.753906 -47.347656 9.179688 -48.382812 9.847656 -49.355469 C 10.820312 -50.753906 11.609375 -50.691406 12.398438 -49.109375 C 13.371094 -47.226562 13.675781 -45.222656 13.554688 -43.09375 C 13.371094 -38.71875 12.339844 -34.523438 10.636719 -30.511719 C 9.359375 -27.414062 8.023438 -24.375 6.441406 -21.457031 C 6.078125 -20.910156 5.773438 -20.300781 5.347656 -19.632812 C 4.863281 -19.996094 4.921875 -20.300781 4.921875 -20.605469 Z M 4.921875 -20.605469 "/></g></g></g><g fill="#191919" fill-opacity="1"><g transform="translate(263.891625, 207.098002)"><g><path d="M 17.871094 -17.746094 C 16.835938 -18.113281 16.714844 -18.113281 16.105469 -17.019531 C 16.046875 -16.835938 15.925781 -16.59375 15.804688 -16.410156 C 13.796875 -12.460938 11.792969 -8.570312 9.785156 -4.621094 C 9.421875 -3.890625 9.054688 -3.222656 8.632812 -2.554688 C 8.023438 -1.640625 7.476562 -1.703125 6.929688 -2.613281 C 6.441406 -3.523438 6.140625 -4.558594 5.957031 -5.53125 C 5.53125 -8.144531 5.53125 -10.820312 5.410156 -13.433594 C 5.226562 -18.234375 5.714844 -23.035156 6.078125 -27.835938 C 6.261719 -30.207031 6.199219 -30.269531 3.707031 -30.328125 C 3.585938 -30.328125 3.402344 -30.328125 3.222656 -30.328125 C 2.613281 -30.390625 2.25 -30.148438 2.066406 -29.539062 C 1.882812 -29.054688 1.640625 -28.628906 1.519531 -28.082031 C 0.363281 -23.582031 -0.363281 -19.023438 -0.363281 -14.039062 C -0.425781 -11.730469 -0.242188 -9.117188 0.363281 -6.503906 C 0.789062 -4.863281 1.335938 -3.34375 2.371094 -2.003906 C 4.921875 1.277344 10.210938 0.972656 12.277344 -2.613281 C 12.824219 -3.585938 13.3125 -4.679688 13.738281 -5.714844 C 15.257812 -9.179688 16.777344 -12.640625 18.296875 -16.105469 C 18.539062 -16.777344 18.84375 -17.382812 17.871094 -17.746094 Z M 5.042969 -33.550781 C 6.6875 -33.613281 7.660156 -34.523438 7.660156 -36.042969 C 7.660156 -37.5 6.625 -38.414062 4.863281 -38.351562 C 3.523438 -38.351562 2.429688 -37.078125 2.492188 -35.617188 C 2.492188 -34.21875 3.34375 -33.550781 5.042969 -33.550781 Z M 5.042969 -33.550781 "/></g></g></g><g fill="#191919" fill-opacity="1"><g transform="translate(283.158758, 207.098002)"><g><path d="M 14.890625 -17.324219 C 15.316406 -17.261719 15.679688 -17.140625 16.046875 -17.078125 C 19.570312 -16.226562 23.035156 -16.898438 26.441406 -17.746094 C 27.167969 -17.929688 27.351562 -18.296875 27.167969 -19.023438 C 27.046875 -19.691406 26.5625 -19.753906 26.015625 -19.632812 C 25.34375 -19.449219 24.675781 -19.390625 24.007812 -19.207031 C 19.753906 -18.113281 16.351562 -19.511719 13.371094 -22.488281 C 12.886719 -22.976562 12.398438 -23.460938 11.914062 -23.949219 C 11.304688 -24.617188 10.636719 -25.222656 9.90625 -25.769531 C 8.082031 -27.109375 6.6875 -27.109375 4.921875 -25.710938 C 3.828125 -24.921875 3.039062 -23.886719 2.308594 -22.792969 C -0.0625 -19.144531 -1.277344 -15.132812 -1.640625 -10.820312 C -1.882812 -8.449219 -1.519531 -6.140625 -0.425781 -4.011719 C 0.609375 -2.003906 2.128906 -0.609375 4.316406 -0.121094 C 8.632812 0.910156 11.914062 -0.789062 13.613281 -4.863281 C 15.132812 -8.632812 15.679688 -12.460938 14.648438 -16.472656 C 14.585938 -16.652344 14.648438 -16.898438 14.585938 -17.199219 C 14.832031 -17.261719 14.832031 -17.324219 14.890625 -17.324219 Z M 8.691406 -21.273438 C 11.914062 -15.925781 12.582031 -10.332031 9.847656 -4.621094 C 9.421875 -3.828125 8.996094 -3.101562 8.328125 -2.492188 C 7.535156 -1.761719 6.808594 -1.824219 6.140625 -2.734375 C 5.714844 -3.28125 5.53125 -3.890625 5.289062 -4.558594 C 4.558594 -7.171875 4.558594 -9.785156 4.921875 -12.398438 C 5.289062 -14.832031 5.714844 -17.261719 6.503906 -19.570312 C 6.808594 -20.484375 7.171875 -21.394531 7.78125 -22.125 C 8.265625 -21.941406 8.507812 -21.578125 8.691406 -21.273438 Z M 8.691406 -21.273438 "/></g></g></g><g fill="#000000" fill-opacity="1"><g transform="translate(143.63525, 244.637784)"><g><path d="M 1.375 -11.125 L 8.203125 -11.125 L 8.203125 -9.09375 L 3.21875 -9.09375 L 3.21875 -6.59375 L 7.515625 -6.59375 L 7.515625 -4.609375 L 3.21875 -4.609375 L 3.21875 -1.640625 L 8.203125 -1.640625 L 8.203125 0.390625 L 1 0.390625 L 1 -11.125 Z M 1.375 -11.125 "/></g></g></g><g fill="#000000" fill-opacity="1"><g transform="translate(154.2968, 244.637784)"><g><path d="M 1.453125 -2.421875 C 1.628906 -2.273438 1.8125 -2.144531 2 -2.03125 C 2.1875 -1.925781 2.390625 -1.828125 2.609375 -1.734375 C 3.015625 -1.554688 3.5 -1.46875 4.0625 -1.46875 C 4.40625 -1.46875 4.703125 -1.5 4.953125 -1.5625 C 5.203125 -1.632812 5.410156 -1.734375 5.578125 -1.859375 C 5.910156 -2.085938 6.078125 -2.398438 6.078125 -2.796875 C 6.078125 -2.828125 6.078125 -2.859375 6.078125 -2.890625 C 6.078125 -2.929688 6.070312 -2.960938 6.0625 -2.984375 C 6.0625 -3.015625 6.054688 -3.046875 6.046875 -3.078125 C 6.046875 -3.117188 6.039062 -3.148438 6.03125 -3.171875 C 6.019531 -3.203125 6.007812 -3.234375 6 -3.265625 C 5.957031 -3.390625 5.867188 -3.515625 5.734375 -3.640625 C 5.585938 -3.773438 5.367188 -3.921875 5.078125 -4.078125 C 4.765625 -4.242188 4.359375 -4.425781 3.859375 -4.625 C 3.285156 -4.832031 2.804688 -5.050781 2.421875 -5.28125 C 2.003906 -5.5 1.660156 -5.75 1.390625 -6.03125 C 1.304688 -6.132812 1.226562 -6.234375 1.15625 -6.328125 C 1.082031 -6.429688 1.015625 -6.539062 0.953125 -6.65625 C 0.890625 -6.769531 0.835938 -6.882812 0.796875 -7 C 0.679688 -7.34375 0.625 -7.726562 0.625 -8.15625 C 0.625 -8.601562 0.71875 -9.019531 0.90625 -9.40625 C 1.09375 -9.789062 1.363281 -10.128906 1.71875 -10.421875 C 2.0625 -10.691406 2.488281 -10.910156 3 -11.078125 C 3.488281 -11.234375 4.046875 -11.3125 4.671875 -11.3125 C 5.328125 -11.3125 5.921875 -11.242188 6.453125 -11.109375 C 6.992188 -10.972656 7.519531 -10.785156 8.03125 -10.546875 L 8.34375 -10.375 L 8.203125 -10.03125 L 7.671875 -8.796875 L 7.5 -8.390625 L 7.125 -8.609375 C 7.019531 -8.679688 6.90625 -8.742188 6.78125 -8.796875 C 6.664062 -8.847656 6.539062 -8.894531 6.40625 -8.9375 C 6.28125 -8.988281 6.140625 -9.039062 5.984375 -9.09375 C 5.554688 -9.21875 5.109375 -9.28125 4.640625 -9.28125 C 4.328125 -9.28125 4.054688 -9.25 3.828125 -9.1875 C 3.597656 -9.132812 3.40625 -9.054688 3.25 -8.953125 C 3.144531 -8.890625 3.0625 -8.820312 3 -8.75 C 2.945312 -8.675781 2.90625 -8.597656 2.875 -8.515625 C 2.851562 -8.429688 2.84375 -8.335938 2.84375 -8.234375 C 2.84375 -8.078125 2.863281 -7.941406 2.90625 -7.828125 C 2.9375 -7.722656 3.007812 -7.617188 3.125 -7.515625 C 3.195312 -7.453125 3.285156 -7.390625 3.390625 -7.328125 C 3.492188 -7.265625 3.617188 -7.195312 3.765625 -7.125 C 3.828125 -7.09375 3.898438 -7.054688 3.984375 -7.015625 C 4.066406 -6.972656 4.15625 -6.929688 4.25 -6.890625 C 4.351562 -6.847656 4.457031 -6.804688 4.5625 -6.765625 C 4.675781 -6.722656 4.796875 -6.675781 4.921875 -6.625 C 5.535156 -6.40625 6.050781 -6.171875 6.46875 -5.921875 C 6.5625 -5.867188 6.648438 -5.816406 6.734375 -5.765625 C 6.816406 -5.710938 6.894531 -5.660156 6.96875 -5.609375 C 7.039062 -5.554688 7.109375 -5.5 7.171875 -5.4375 C 7.242188 -5.382812 7.3125 -5.328125 7.375 -5.265625 C 7.4375 -5.210938 7.492188 -5.15625 7.546875 -5.09375 C 7.835938 -4.789062 8.039062 -4.457031 8.15625 -4.09375 C 8.28125 -3.75 8.34375 -3.375 8.34375 -2.96875 C 8.34375 -2.40625 8.234375 -1.898438 8.015625 -1.453125 C 7.796875 -1.015625 7.492188 -0.644531 7.109375 -0.34375 C 6.722656 -0.03125 6.265625 0.203125 5.734375 0.359375 C 5.222656 0.492188 4.664062 0.5625 4.0625 0.5625 C 3.28125 0.5625 2.5625 0.457031 1.90625 0.25 C 1.25 0.03125 0.695312 -0.25 0.25 -0.59375 L -0.03125 -0.8125 L 0.15625 -1.109375 L 0.890625 -2.328125 L 1.125 -2.71875 Z M 1.453125 -2.421875 "/></g></g></g><g fill="#000000" fill-opacity="1"><g transform="translate(165.157764, 244.637784)"><g><path d="M 0.15625 -11.125 L 8.59375 -11.125 L 8.59375 -9.0625 L 5.296875 -9.0625 L 5.296875 0.390625 L 3.0625 0.390625 L 3.0625 -9.0625 L -0.234375 -9.0625 L -0.234375 -11.125 Z M 0.15625 -11.125 "/></g></g></g><g fill="#000000" fill-opacity="1"><g transform="translate(175.665915, 244.637784)"><g><path d="M 0.890625 -0.84375 C 0.890625 -0.976562 0.898438 -1.101562 0.921875 -1.21875 C 0.953125 -1.332031 0.992188 -1.445312 1.046875 -1.5625 C 1.109375 -1.675781 1.1875 -1.773438 1.28125 -1.859375 C 1.519531 -2.117188 1.859375 -2.25 2.296875 -2.25 C 2.671875 -2.25 3 -2.113281 3.28125 -1.84375 C 3.570312 -1.5625 3.71875 -1.226562 3.71875 -0.84375 C 3.71875 -0.425781 3.578125 -0.0859375 3.296875 0.171875 C 3.035156 0.429688 2.703125 0.5625 2.296875 0.5625 C 1.921875 0.5625 1.59375 0.421875 1.3125 0.140625 C 1.03125 -0.140625 0.890625 -0.46875 0.890625 -0.84375 Z M 0.890625 -0.84375 "/></g></g></g><g fill="#000000" fill-opacity="1"><g transform="translate(182.415867, 244.637784)"><g/></g></g><g fill="#000000" fill-opacity="1"><g transform="translate(189.165819, 244.637784)"><g><path d="M 0.96875 0.0625 C 0.9375 -0.144531 0.921875 -0.351562 0.921875 -0.5625 C 0.921875 -1.269531 1.050781 -1.914062 1.3125 -2.5 C 1.570312 -3.0625 1.890625 -3.570312 2.265625 -4.03125 C 2.640625 -4.476562 3.039062 -4.898438 3.46875 -5.296875 C 3.675781 -5.472656 3.875 -5.648438 4.0625 -5.828125 C 4.25 -6.015625 4.4375 -6.195312 4.625 -6.375 C 4.957031 -6.6875 5.238281 -7.003906 5.46875 -7.328125 C 5.65625 -7.609375 5.75 -7.898438 5.75 -8.203125 C 5.75 -8.523438 5.632812 -8.785156 5.40625 -8.984375 C 5.164062 -9.203125 4.84375 -9.3125 4.4375 -9.3125 C 4.0625 -9.3125 3.722656 -9.238281 3.421875 -9.09375 C 3.109375 -8.945312 2.8125 -8.742188 2.53125 -8.484375 L 2.234375 -8.203125 L 1.984375 -8.515625 L 1.21875 -9.453125 L 0.984375 -9.75 L 1.25 -9.984375 C 1.6875 -10.378906 2.171875 -10.695312 2.703125 -10.9375 C 2.972656 -11.0625 3.265625 -11.15625 3.578125 -11.21875 C 3.898438 -11.28125 4.238281 -11.3125 4.59375 -11.3125 C 5.082031 -11.3125 5.535156 -11.238281 5.953125 -11.09375 C 6.160156 -11.007812 6.351562 -10.914062 6.53125 -10.8125 C 6.71875 -10.707031 6.882812 -10.585938 7.03125 -10.453125 C 7.332031 -10.171875 7.566406 -9.847656 7.734375 -9.484375 C 7.898438 -9.117188 7.984375 -8.722656 7.984375 -8.296875 C 7.984375 -8.160156 7.972656 -8.023438 7.953125 -7.890625 C 7.941406 -7.765625 7.921875 -7.632812 7.890625 -7.5 C 7.859375 -7.363281 7.816406 -7.234375 7.765625 -7.109375 C 7.722656 -6.992188 7.671875 -6.878906 7.609375 -6.765625 C 7.367188 -6.328125 7.070312 -5.910156 6.71875 -5.515625 C 6.382812 -5.117188 6.007812 -4.75 5.59375 -4.40625 C 5.40625 -4.226562 5.21875 -4.054688 5.03125 -3.890625 C 4.851562 -3.722656 4.679688 -3.550781 4.515625 -3.375 C 4.347656 -3.195312 4.191406 -3.019531 4.046875 -2.84375 C 3.898438 -2.664062 3.765625 -2.484375 3.640625 -2.296875 C 3.597656 -2.222656 3.554688 -2.148438 3.515625 -2.078125 C 3.472656 -2.015625 3.4375 -1.941406 3.40625 -1.859375 C 3.375 -1.785156 3.347656 -1.710938 3.328125 -1.640625 L 7.96875 -1.640625 L 7.96875 0.390625 L 1.03125 0.390625 Z M 0.96875 0.0625 "/></g></g></g><g fill="#000000" fill-opacity="1"><g transform="translate(200.517647, 244.637784)"><g><path d="M 4.625 -11.3125 C 5.269531 -11.3125 5.859375 -11.164062 6.390625 -10.875 C 6.640625 -10.738281 6.867188 -10.566406 7.078125 -10.359375 C 7.296875 -10.160156 7.492188 -9.929688 7.671875 -9.671875 C 7.992188 -9.160156 8.242188 -8.535156 8.421875 -7.796875 C 8.585938 -7.078125 8.671875 -6.265625 8.671875 -5.359375 C 8.671875 -3.492188 8.332031 -2.054688 7.65625 -1.046875 C 6.9375 0.0234375 5.914062 0.5625 4.59375 0.5625 C 3.25 0.5625 2.226562 0.0195312 1.53125 -1.0625 C 1.195312 -1.59375 0.945312 -2.210938 0.78125 -2.921875 C 0.613281 -3.640625 0.53125 -4.460938 0.53125 -5.390625 C 0.53125 -7.242188 0.867188 -8.679688 1.546875 -9.703125 C 2.265625 -10.773438 3.289062 -11.3125 4.625 -11.3125 Z M 4.609375 -9.28125 C 4.578125 -9.28125 4.539062 -9.28125 4.5 -9.28125 C 4.46875 -9.28125 4.4375 -9.273438 4.40625 -9.265625 C 4.375 -9.265625 4.335938 -9.257812 4.296875 -9.25 C 4.265625 -9.25 4.234375 -9.242188 4.203125 -9.234375 C 4.171875 -9.222656 4.140625 -9.210938 4.109375 -9.203125 C 4.085938 -9.203125 4.0625 -9.191406 4.03125 -9.171875 C 4 -9.160156 3.96875 -9.148438 3.9375 -9.140625 C 3.914062 -9.128906 3.890625 -9.113281 3.859375 -9.09375 C 3.765625 -9.039062 3.671875 -8.96875 3.578125 -8.875 C 3.484375 -8.789062 3.394531 -8.675781 3.3125 -8.53125 C 3.132812 -8.238281 3.003906 -7.835938 2.921875 -7.328125 C 2.816406 -6.816406 2.765625 -6.175781 2.765625 -5.40625 C 2.765625 -4.039062 2.941406 -3.019531 3.296875 -2.34375 C 3.617188 -1.75 4.054688 -1.453125 4.609375 -1.453125 C 4.742188 -1.453125 4.867188 -1.46875 4.984375 -1.5 C 5.109375 -1.53125 5.226562 -1.578125 5.34375 -1.640625 C 5.550781 -1.753906 5.734375 -1.941406 5.890625 -2.203125 C 5.984375 -2.347656 6.0625 -2.519531 6.125 -2.71875 C 6.195312 -2.914062 6.253906 -3.144531 6.296875 -3.40625 C 6.390625 -3.914062 6.4375 -4.5625 6.4375 -5.34375 C 6.4375 -6.695312 6.257812 -7.710938 5.90625 -8.390625 C 5.59375 -8.984375 5.160156 -9.28125 4.609375 -9.28125 Z M 4.609375 -9.28125 "/></g></g></g><g fill="#000000" fill-opacity="1"><g transform="translate(211.869476, 244.637784)"><g><path d="M 0.96875 0.0625 C 0.9375 -0.144531 0.921875 -0.351562 0.921875 -0.5625 C 0.921875 -1.269531 1.050781 -1.914062 1.3125 -2.5 C 1.570312 -3.0625 1.890625 -3.570312 2.265625 -4.03125 C 2.640625 -4.476562 3.039062 -4.898438 3.46875 -5.296875 C 3.675781 -5.472656 3.875 -5.648438 4.0625 -5.828125 C 4.25 -6.015625 4.4375 -6.195312 4.625 -6.375 C 4.957031 -6.6875 5.238281 -7.003906 5.46875 -7.328125 C 5.65625 -7.609375 5.75 -7.898438 5.75 -8.203125 C 5.75 -8.523438 5.632812 -8.785156 5.40625 -8.984375 C 5.164062 -9.203125 4.84375 -9.3125 4.4375 -9.3125 C 4.0625 -9.3125 3.722656 -9.238281 3.421875 -9.09375 C 3.109375 -8.945312 2.8125 -8.742188 2.53125 -8.484375 L 2.234375 -8.203125 L 1.984375 -8.515625 L 1.21875 -9.453125 L 0.984375 -9.75 L 1.25 -9.984375 C 1.6875 -10.378906 2.171875 -10.695312 2.703125 -10.9375 C 2.972656 -11.0625 3.265625 -11.15625 3.578125 -11.21875 C 3.898438 -11.28125 4.238281 -11.3125 4.59375 -11.3125 C 5.082031 -11.3125 5.535156 -11.238281 5.953125 -11.09375 C 6.160156 -11.007812 6.351562 -10.914062 6.53125 -10.8125 C 6.71875 -10.707031 6.882812 -10.585938 7.03125 -10.453125 C 7.332031 -10.171875 7.566406 -9.847656 7.734375 -9.484375 C 7.898438 -9.117188 7.984375 -8.722656 7.984375 -8.296875 C 7.984375 -8.160156 7.972656 -8.023438 7.953125 -7.890625 C 7.941406 -7.765625 7.921875 -7.632812 7.890625 -7.5 C 7.859375 -7.363281 7.816406 -7.234375 7.765625 -7.109375 C 7.722656 -6.992188 7.671875 -6.878906 7.609375 -6.765625 C 7.367188 -6.328125 7.070312 -5.910156 6.71875 -5.515625 C 6.382812 -5.117188 6.007812 -4.75 5.59375 -4.40625 C 5.40625 -4.226562 5.21875 -4.054688 5.03125 -3.890625 C 4.851562 -3.722656 4.679688 -3.550781 4.515625 -3.375 C 4.347656 -3.195312 4.191406 -3.019531 4.046875 -2.84375 C 3.898438 -2.664062 3.765625 -2.484375 3.640625 -2.296875 C 3.597656 -2.222656 3.554688 -2.148438 3.515625 -2.078125 C 3.472656 -2.015625 3.4375 -1.941406 3.40625 -1.859375 C 3.375 -1.785156 3.347656 -1.710938 3.328125 -1.640625 L 7.96875 -1.640625 L 7.96875 0.390625 L 1.03125 0.390625 Z M 0.96875 0.0625 "/></g></g></g><g fill="#000000" fill-opacity="1"><g transform="translate(223.221305, 244.637784)"><g><path d="M 7.328125 -1.90625 L 7.328125 0.390625 L 5.1875 0.390625 L 5.1875 -1.90625 L 0.59375 -1.90625 L 0.59375 -3.46875 L 0.625 -3.546875 L 3.828125 -11 L 3.984375 -11.359375 L 4.34375 -11.203125 L 5.546875 -10.6875 L 5.890625 -10.546875 L 5.734375 -10.1875 L 3.0625 -3.921875 L 5.1875 -3.921875 L 5.1875 -6.984375 L 7.328125 -6.984375 L 7.328125 -3.921875 L 8.609375 -3.921875 L 8.609375 -1.90625 Z M 7.328125 -1.90625 "/></g></g></g><g fill="#000000" fill-opacity="1"><g transform="translate(124.638409, 319.05767)"><g><path d="M 10.140625 -2.328125 L 6.765625 0.796875 L 6.609375 0.921875 L 6.40625 0.84375 L 5.25 0.328125 L 5.046875 0.25 L 5.03125 0.03125 L 5 -4.59375 L 2.515625 1.09375 L 2.390625 1.390625 L 2.09375 1.265625 L 0.984375 0.78125 L 0.671875 0.640625 L 0.796875 0.34375 L 4.546875 -8.265625 L 4.6875 -8.578125 L 5 -8.4375 L 5.859375 -8.0625 L 6.640625 -7.71875 L 6.828125 -7.640625 L 6.828125 -7.421875 L 6.84375 -1.703125 L 11.015625 -5.59375 L 11.1875 -5.75 L 11.375 -5.671875 L 12.125 -5.328125 L 13.046875 -4.9375 L 13.359375 -4.796875 L 13.21875 -4.484375 L 9.46875 4.125 L 9.34375 4.421875 L 9.03125 4.28125 L 7.859375 3.765625 L 7.546875 3.640625 L 7.671875 3.34375 Z M 10.140625 -2.328125 "/></g></g></g><g fill="#000000" fill-opacity="1"><g transform="translate(140.388659, 325.503351)"><g><path d="M 9.34375 -7.296875 L 10.515625 -6.9375 L 10.84375 -6.828125 L 10.734375 -6.5 L 9.03125 -1 C 8.84375 -0.394531 8.582031 0.125 8.25 0.5625 C 7.9375 0.988281 7.566406 1.328125 7.140625 1.578125 C 7.035156 1.617188 6.9375 1.660156 6.84375 1.703125 C 6.757812 1.742188 6.671875 1.78125 6.578125 1.8125 C 6.484375 1.84375 6.382812 1.867188 6.28125 1.890625 C 6.1875 1.921875 6.09375 1.941406 6 1.953125 C 5.90625 1.972656 5.8125 1.988281 5.71875 2 C 5.21875 2.039062 4.691406 1.976562 4.140625 1.8125 C 3.003906 1.457031 2.210938 0.84375 1.765625 -0.03125 C 1.335938 -0.90625 1.316406 -1.960938 1.703125 -3.203125 L 3.421875 -8.765625 L 3.53125 -9.09375 L 3.84375 -9 L 5.0625 -8.625 L 5.390625 -8.515625 L 5.28125 -8.1875 L 3.609375 -2.8125 C 3.367188 -2.019531 3.335938 -1.375 3.515625 -0.875 C 3.585938 -0.632812 3.71875 -0.429688 3.90625 -0.265625 C 4.09375 -0.109375 4.34375 0.015625 4.65625 0.109375 C 5.28125 0.304688 5.800781 0.253906 6.21875 -0.046875 C 6.664062 -0.347656 7.007812 -0.894531 7.25 -1.6875 L 8.921875 -7.0625 L 9.03125 -7.390625 Z M 9.34375 -7.296875 "/></g></g></g><g fill="#000000" fill-opacity="1"><g transform="translate(154.570482, 329.566065)"><g><path d="M 6.59375 1.71875 L 1.109375 0.578125 L 0.796875 0.5 L 0.859375 0.171875 L 2.78125 -9.015625 L 2.859375 -9.359375 L 3.171875 -9.28125 L 4.4375 -9.015625 L 4.75 -8.953125 L 4.671875 -8.609375 L 3.046875 -0.859375 L 6.953125 -0.046875 L 7.265625 0.015625 L 7.203125 0.34375 L 6.96875 1.453125 L 6.90625 1.78125 Z M 6.59375 1.71875 "/></g></g></g><g fill="#000000" fill-opacity="1"><g transform="translate(166.946145, 331.909889)"><g><path d="M 1.28125 -9.65625 L 8.28125 -8.828125 L 8.609375 -8.78125 L 8.578125 -8.4375 L 8.4375 -7.3125 L 8.40625 -6.984375 L 8.078125 -7.03125 L 5.53125 -7.328125 L 4.59375 0.546875 L 4.5625 0.875 L 4.234375 0.828125 L 2.96875 0.6875 L 2.640625 0.640625 L 2.671875 0.3125 L 3.609375 -7.5625 L 1.078125 -7.859375 L 0.734375 -7.90625 L 0.765625 -8.234375 L 0.90625 -9.359375 L 0.9375 -9.703125 Z M 1.28125 -9.65625 "/></g></g></g><g fill="#000000" fill-opacity="1"><g transform="translate(179.889263, 333.152221)"><g><path d="M 0.875 0.03125 L 1.25 -9.34375 L 1.265625 -9.6875 L 1.59375 -9.671875 L 2.875 -9.625 L 3.203125 -9.609375 L 3.1875 -9.265625 L 2.8125 0.109375 L 2.796875 0.4375 L 2.46875 0.421875 L 1.1875 0.375 L 0.859375 0.359375 Z M 0.875 0.03125 "/></g></g></g><g fill="#000000" fill-opacity="1"><g transform="translate(189.329696, 333.445716)"><g><path d="M 8.046875 -6.59375 L 6.40625 -2.3125 L 6.3125 -2.109375 L 6.09375 -2.09375 L 4.84375 -2.03125 L 4.625 -2.015625 L 4.53125 -2.21875 L 2.4375 -6.328125 L 2.75 -0.140625 L 2.765625 0.1875 L 2.4375 0.203125 L 1.21875 0.265625 L 0.890625 0.28125 L 0.875 -0.046875 L 0.40625 -9.421875 L 0.390625 -9.765625 L 0.71875 -9.78125 L 1.65625 -9.828125 L 2.515625 -9.875 L 2.71875 -9.875 L 2.8125 -9.6875 L 5.375 -4.578125 L 7.359375 -9.90625 L 7.453125 -10.125 L 7.65625 -10.125 L 8.484375 -10.171875 L 9.484375 -10.21875 L 9.828125 -10.234375 L 9.84375 -9.890625 L 10.3125 -0.515625 L 10.328125 -0.1875 L 9.984375 -0.171875 L 8.703125 -0.109375 L 8.375 -0.09375 L 8.359375 -0.421875 Z M 8.046875 -6.59375 "/></g></g></g><g fill="#000000" fill-opacity="1"><g transform="translate(206.276736, 332.191554)"><g><path d="M -0.3125 -9.8125 L 5.265625 -10.671875 L 5.609375 -10.734375 L 5.65625 -10.390625 L 5.828125 -9.3125 L 5.890625 -8.96875 L 5.546875 -8.90625 L 1.5625 -8.296875 L 1.890625 -6.140625 L 5.265625 -6.65625 L 5.609375 -6.71875 L 5.65625 -6.390625 L 5.828125 -5.328125 L 5.875 -5 L 5.53125 -4.9375 L 2.15625 -4.421875 L 2.5625 -1.859375 L 6.546875 -2.46875 L 6.890625 -2.53125 L 6.9375 -2.1875 L 7.109375 -1.109375 L 7.15625 -0.78125 L 6.8125 -0.71875 L 1.234375 0.140625 L 0.90625 0.1875 L 0.859375 -0.140625 L -0.59375 -9.421875 L -0.640625 -9.765625 Z M -0.3125 -9.8125 "/></g></g></g><g fill="#000000" fill-opacity="1"><g transform="translate(219.303627, 329.918848)"><g><path d="M -1.28125 -9.6875 C -1.1875 -9.71875 -1.082031 -9.75 -0.96875 -9.78125 C -0.863281 -9.820312 -0.765625 -9.859375 -0.671875 -9.890625 C -0.585938 -9.921875 -0.492188 -9.953125 -0.390625 -9.984375 C -0.296875 -10.023438 -0.195312 -10.0625 -0.09375 -10.09375 C 0.289062 -10.21875 0.738281 -10.347656 1.25 -10.484375 C 2.070312 -10.691406 2.828125 -10.742188 3.515625 -10.640625 C 4.179688 -10.535156 4.773438 -10.300781 5.296875 -9.9375 C 5.816406 -9.59375 6.25 -9.144531 6.59375 -8.59375 C 6.925781 -8.039062 7.175781 -7.429688 7.34375 -6.765625 C 7.519531 -6.097656 7.59375 -5.4375 7.5625 -4.78125 C 7.550781 -4.65625 7.535156 -4.53125 7.515625 -4.40625 C 7.503906 -4.28125 7.484375 -4.148438 7.453125 -4.015625 C 7.429688 -3.890625 7.398438 -3.769531 7.359375 -3.65625 C 7.316406 -3.539062 7.269531 -3.421875 7.21875 -3.296875 C 7.175781 -3.179688 7.128906 -3.066406 7.078125 -2.953125 C 6.785156 -2.378906 6.359375 -1.875 5.796875 -1.4375 C 5.234375 -1.03125 4.523438 -0.71875 3.671875 -0.5 C 3.585938 -0.476562 3.503906 -0.457031 3.421875 -0.4375 C 3.335938 -0.414062 3.257812 -0.394531 3.1875 -0.375 C 3.113281 -0.351562 3.039062 -0.332031 2.96875 -0.3125 C 2.894531 -0.300781 2.820312 -0.285156 2.75 -0.265625 C 2.6875 -0.253906 2.617188 -0.238281 2.546875 -0.21875 C 2.484375 -0.207031 2.414062 -0.195312 2.34375 -0.1875 C 1.96875 -0.113281 1.59375 -0.0507812 1.21875 0 L 0.90625 0.03125 L 0.84375 -0.25 L -1.484375 -9.296875 L -1.5625 -9.578125 Z M 1.640625 -8.75 C 1.523438 -8.71875 1.410156 -8.6875 1.296875 -8.65625 C 1.191406 -8.625 1.09375 -8.59375 1 -8.5625 C 0.90625 -8.539062 0.8125 -8.515625 0.71875 -8.484375 L 2.375 -2.03125 C 2.40625 -2.039062 2.429688 -2.046875 2.453125 -2.046875 C 2.472656 -2.054688 2.492188 -2.0625 2.515625 -2.0625 C 2.546875 -2.0625 2.566406 -2.0625 2.578125 -2.0625 C 2.597656 -2.070312 2.625 -2.078125 2.65625 -2.078125 C 2.851562 -2.117188 3.054688 -2.164062 3.265625 -2.21875 C 3.378906 -2.25 3.484375 -2.28125 3.578125 -2.3125 C 3.679688 -2.351562 3.78125 -2.390625 3.875 -2.421875 C 3.96875 -2.460938 4.054688 -2.503906 4.140625 -2.546875 C 4.222656 -2.585938 4.300781 -2.628906 4.375 -2.671875 C 4.445312 -2.722656 4.519531 -2.773438 4.59375 -2.828125 C 4.925781 -3.078125 5.179688 -3.367188 5.359375 -3.703125 C 5.523438 -4.054688 5.613281 -4.441406 5.625 -4.859375 C 5.632812 -5.304688 5.578125 -5.773438 5.453125 -6.265625 C 5.335938 -6.691406 5.171875 -7.09375 4.953125 -7.46875 C 4.734375 -7.832031 4.46875 -8.132812 4.15625 -8.375 C 4 -8.476562 3.828125 -8.570312 3.640625 -8.65625 C 3.460938 -8.738281 3.269531 -8.796875 3.0625 -8.828125 C 2.632812 -8.910156 2.160156 -8.882812 1.640625 -8.75 Z M 1.640625 -8.75 "/></g></g></g><g fill="#000000" fill-opacity="1"><g transform="translate(233.609534, 325.873198)"><g><path d="M 0.828125 -0.28125 L -2.265625 -9.140625 L -2.375 -9.46875 L -2.0625 -9.578125 L -0.859375 -10 L -0.546875 -10.109375 L -0.4375 -9.78125 L 2.65625 -0.921875 L 2.765625 -0.609375 L 2.453125 -0.5 L 1.25 -0.078125 L 0.9375 0.03125 Z M 0.828125 -0.28125 "/></g></g></g><g fill="#000000" fill-opacity="1"><g transform="translate(242.450706, 322.653514)"><g><path d="M -0.328125 -0.34375 L -0.65625 -10.109375 L -0.671875 -10.359375 L -0.453125 -10.453125 L 0.8125 -11.015625 L 1.03125 -11.109375 L 1.171875 -10.9375 L 8.171875 -4.125 L 8.421875 -3.90625 L 8.171875 -3.671875 L 7.296875 -2.765625 L 7.078125 -2.515625 L 6.84375 -2.765625 L 4.953125 -4.640625 L 1.390625 -3.046875 L 1.5 -0.40625 L 1.515625 -0.078125 L 1.1875 -0.0625 L 0.015625 -0.046875 L -0.328125 0 Z M 1.296875 -4.90625 L 3.609375 -5.9375 L 1.140625 -8.390625 Z M 1.296875 -4.90625 "/></g></g></g></svg>